<svg version="1.1" xmlns="http://www.w3.org/2000/svg" xmlns:xlink="http://www.w3.org/1999/xlink" width="586.5" height="510.5516" viewBox="0,0,586.5,510.5516"><defs><radialGradient cx="220.94637" cy="207.41919" r="193.97643" gradientUnits="userSpaceOnUse" id="color-1"><stop offset="0" stop-color="#ffffff"/><stop offset="1" stop-color="#ffffff" stop-opacity="0"/></radialGradient><linearGradient x1="219.64602" y1="201.13313" x2="469.52272" y2="201.13313" gradientUnits="userSpaceOnUse" id="color-2"><stop offset="0" stop-color="#ffffff"/><stop offset="1" stop-color="#ffffff" stop-opacity="0"/></linearGradient><linearGradient x1="220.35397" y1="202.19162" x2="-29.52288" y2="202.19162" gradientUnits="userSpaceOnUse" id="color-3"><stop offset="0" stop-color="#ffffff"/><stop offset="1" stop-color="#ffffff" stop-opacity="0"/></linearGradient><linearGradient x1="220.32765" y1="201.12503" x2="340.3084" y2="420.31206" gradientUnits="userSpaceOnUse" id="color-4"><stop offset="0" stop-color="#ffffff"/><stop offset="1" stop-color="#ffffff" stop-opacity="0"/></linearGradient><linearGradient x1="219.73899" y1="202.25407" x2="99.75841" y2="-16.93295" gradientUnits="userSpaceOnUse" id="color-5"><stop offset="0" stop-color="#ffffff"/><stop offset="1" stop-color="#ffffff" stop-opacity="0"/></linearGradient><linearGradient x1="219.39919" y1="201.12503" x2="99.41858" y2="420.31221" gradientUnits="userSpaceOnUse" id="color-6"><stop offset="0" stop-color="#ffffff"/><stop offset="1" stop-color="#ffffff" stop-opacity="0"/></linearGradient><linearGradient x1="219.98785" y1="202.25407" x2="339.96859" y2="-16.93295" gradientUnits="userSpaceOnUse" id="color-7"><stop offset="0" stop-color="#ffffff"/><stop offset="1" stop-color="#ffffff" stop-opacity="0"/></linearGradient><linearGradient x1="191.79505" y1="183.79254" x2="258.2571" y2="183.79254" gradientUnits="userSpaceOnUse" id="color-8"><stop offset="0" stop-color="#d8ff00"/><stop offset="1" stop-color="#a9c700"/></linearGradient><linearGradient x1="154.70116" y1="218.47099" x2="271.59665" y2="218.47099" gradientUnits="userSpaceOnUse" id="color-9"><stop offset="0" stop-color="#26831b"/><stop offset="1" stop-color="#164d10"/></linearGradient></defs><g transform="translate(77.75,53.2758)"><g data-paper-data="{&quot;isPaintingLayer&quot;:true}" fill-rule="nonzero" stroke-linejoin="miter" stroke-miterlimit="10" stroke-dasharray="" stroke-dashoffset="0" style="mix-blend-mode: normal"><path d="M-76.5,440v-467h584v467z" fill="#217300" stroke="#442e00" stroke-width="2.5" stroke-linecap="butt"/><path d="M413.05809,207.41919c0,107.13033 -86.01124,193.97643 -192.11141,193.97643c-106.10016,0 -192.11141,-86.84626 -192.11141,-193.97643c0,-107.13032 86.01124,-193.97643 192.11141,-193.97643c106.10016,0 192.11141,86.84627 192.11141,193.97643z" fill="url(#color-1)" stroke="none" stroke-width="0" stroke-linecap="butt"/><g stroke="none" stroke-width="0" stroke-linecap="round"><path d="M469.52272,278.11511l-249.8767,-78.30163l249.16891,-75.66231" data-paper-data="{&quot;origPos&quot;:null}" fill="url(#color-2)"/><path d="M-28.81494,125.20965l249.16891,75.66231l-249.87669,78.30163" data-paper-data="{&quot;origPos&quot;:null,&quot;index&quot;:null}" fill="url(#color-3)"/></g><g data-paper-data="{&quot;origRot&quot;:0}" stroke="none" stroke-width="0" stroke-linecap="round"><path d="M272.78129,457.2758l-51.29593,-256.78443l186.01035,182.23622" data-paper-data="{&quot;origPos&quot;:null}" fill="url(#color-4)"/><path d="M167.62531,-53.2758l53.27121,254.89621l-188.66539,-181.58993" data-paper-data="{&quot;origPos&quot;:null,&quot;index&quot;:null}" fill="url(#color-5)"/></g><g data-paper-data="{&quot;origRot&quot;:0,&quot;index&quot;:null}" stroke="none" stroke-width="0" stroke-linecap="round"><path d="M32.23129,382.72757l186.01051,-182.23622l-51.29594,256.78428" data-paper-data="{&quot;origPos&quot;:null}" fill="url(#color-6)"/><path d="M407.49571,20.03063l-188.6654,181.58993l53.27137,-254.8962" data-paper-data="{&quot;origPos&quot;:null,&quot;index&quot;:null}" fill="url(#color-7)"/></g><text transform="translate(11.31158,133.68543) rotate(-8.60315) scale(1.36674,1.36674)" font-size="40" xml:space="preserve" fill="#8bc485" fill-rule="nonzero" stroke="none" stroke-width="1" stroke-linecap="butt" stroke-linejoin="miter" stroke-miterlimit="10" stroke-dasharray="" stroke-dashoffset="0" font-family="Marker" font-weight="normal" text-anchor="start" style="mix-blend-mode: normal"><tspan x="0" dy="0">Corn Clicker</tspan></text><path d="M248.48324,214.17269c-6.80736,14.67878 -25.32642,24.10306 -38.02516,18.25501c-15.1866,-6.99376 -23.6453,-32.38783 -15.50428,-49.94238c14.94836,-32.2333 40.61676,-53.79521 52.67625,-48.20256c12.05948,5.59265 15.80156,47.65665 0.85319,79.88995z" fill="url(#color-8)" stroke="#a9c700" stroke-width="0" stroke-linecap="butt"/><path d="M154.70116,179.70352c0,0 6.84156,-3.46843 10.84238,-4.66248c3.57674,-1.06746 12.03312,-2.16473 12.03312,-2.16473c0,0 10.23797,3.31167 13.96355,5.31217c2.75268,1.47807 6.36818,5.60521 6.36818,5.60521l16.30183,33.50115l28.07447,-13.13405c0,0 10.35458,1.30913 15.22358,2.86991c0.93751,0.30052 9.88108,9.19776 9.88108,9.19776c0,0 2.54569,6.10033 3.22451,8.9881c0.72107,3.06754 0.9828,8.91046 0.9828,8.91046c0,0 -6.40683,-8.46736 -9.49387,-11.13058c-2.4489,-2.11268 -7.40476,-2.42265 -9.32128,-1.42243c-1.91652,1.00024 -10.10868,7.94087 -14.53556,13.25827c-4.10568,4.9316 -11.87023,14.25808 -11.87023,14.25808c0,0 -5.2308,13.76482 -14.86147,14.88268c-9.63065,1.11788 -22.22135,-8.19622 -25.32949,-11.04693c-0.9946,-0.91223 -3.46254,-5.25942 -3.64717,-7.85403c-0.22307,-3.1348 1.35664,-8.32138 1.11098,-10.63282c-0.4252,-4.00091 5.54926,-12.94315 4.66867,-21.22893c-1.0302,-9.69349 -0.60631,-16.8163 -0.60631,-16.8163c0,0 -2.54977,-7.0529 -5.41547,-9.3484c-3.66192,-2.93331 -11.77659,-6.70452 -11.77659,-6.70452z" fill="url(#color-9)" stroke="#0c7800" stroke-width="0" stroke-linecap="round"/></g></g></svg>