<svg version="1.1" xmlns="http://www.w3.org/2000/svg" xmlns:xlink="http://www.w3.org/1999/xlink" width="195.79764" height="200.22414" viewBox="0,0,195.79764,200.22414"><g transform="translate(-138.42872,-87.25)"><g data-paper-data="{&quot;isPaintingLayer&quot;:true}" fill-rule="nonzero" stroke-width="3" stroke-linejoin="miter" stroke-miterlimit="10" stroke-dasharray="" stroke-dashoffset="0" style="mix-blend-mode: normal"><path d="M287.974,193.61661c0,23.52837 -18.66431,47.29007 -38.9938,47.34424c-24.31232,0.06477 -51.0062,-28.25957 -51.0062,-56.39747c0,-51.66627 20.67003,-95.81337 40,-95.81337c19.32997,0 50,53.20033 50,104.86661z" fill="#d8ff00" stroke="#a9c700" stroke-linecap="butt"/><path d="M143.17203,205.51919c0,0 6.9033,-8.76093 11.45057,-12.78367c4.06527,-3.59633 14.54943,-10.21718 14.54943,-10.21718c0,0 15.53162,-1.89465 21.67017,-1.53486c4.53549,0.26583 11.82983,3.49835 11.82983,3.49835l42,34.22077l29,-34.50127c0,0 14.46037,-4.6077 21.83824,-5.52746c1.42058,-0.1771 18.66176,6.08846 18.66176,6.08846c0,0 7.09022,6.48999 9.75235,9.88417c2.82786,3.60549 6.74765,11.15318 6.74765,11.15318c0,0 -13.6318,-7.25037 -19.33342,-8.87504c-4.52301,-1.28883 -11.25027,1.33413 -13.16658,3.82608c-1.91631,2.49195 -8.47708,16.65959 -11.06385,26.3824c-2.39908,9.01737 -6.93615,26.07074 -6.93615,26.07074c0,0 1.52061,21.35822 -10.5,28.72466c-12.02061,7.36645 -34.32799,2.78219 -40.17216,0.9231c-1.87013,-0.5949 -7.78525,-4.81979 -9.61613,-8.12959c-2.21206,-3.99888 -3.30115,-11.80727 -5.03929,-14.70618c-3.00857,-5.01778 -0.59784,-20.46912 -6.8285,-30.86076c-7.28921,-12.15714 -11.0876,-21.81267 -11.0876,-21.81267c0,0 -7.67834,-7.74411 -12.86301,-9.0191c-6.62524,-1.62926 -19.63699,-1.63982 -19.63699,-1.63982z" fill="#10aa00" stroke="#0c7800" stroke-linecap="round"/></g></g></svg>